<svg xmlns="http://www.w3.org/2000/svg" width="900" height="540" viewBox="0 0 900 540">
<rect width="100%" height="100%" fill="#fbfaf7"/>
<text x="450.0" y="32" text-anchor="middle" font-family="Arial" font-size="22" font-weight="bold" fill="#202124">Q4 MPI Wall Efficiency</text>
<line x1="85" y1="470.0" x2="865" y2="470.0" stroke="#d9d9d9"/>
<text x="73" y="475.0" text-anchor="end" font-family="Arial" font-size="12" fill="#555">0.00</text>
<line x1="85" y1="387.0" x2="865" y2="387.0" stroke="#d9d9d9"/>
<text x="73" y="392.0" text-anchor="end" font-family="Arial" font-size="12" fill="#555">0.20</text>
<line x1="85" y1="304.0" x2="865" y2="304.0" stroke="#d9d9d9"/>
<text x="73" y="309.0" text-anchor="end" font-family="Arial" font-size="12" fill="#555">0.40</text>
<line x1="85" y1="221.0" x2="865" y2="221.0" stroke="#d9d9d9"/>
<text x="73" y="226.0" text-anchor="end" font-family="Arial" font-size="12" fill="#555">0.60</text>
<line x1="85" y1="138.0" x2="865" y2="138.0" stroke="#d9d9d9"/>
<text x="73" y="143.0" text-anchor="end" font-family="Arial" font-size="12" fill="#555">0.80</text>
<line x1="85" y1="55.0" x2="865" y2="55.0" stroke="#d9d9d9"/>
<text x="73" y="60.0" text-anchor="end" font-family="Arial" font-size="12" fill="#555">1.00</text>
<line x1="85" y1="55" x2="85" y2="470" stroke="#555"/>
<line x1="85" y1="470" x2="865" y2="470" stroke="#555"/>
<text x="85.0" y="495" text-anchor="middle" font-family="Arial" font-size="12" fill="#555">1</text>
<text x="345.0" y="495" text-anchor="middle" font-family="Arial" font-size="12" fill="#555">2</text>
<text x="605.0" y="495" text-anchor="middle" font-family="Arial" font-size="12" fill="#555">4</text>
<text x="865.0" y="495" text-anchor="middle" font-family="Arial" font-size="12" fill="#555">8</text>
<text x="450.0" y="522" text-anchor="middle" font-family="Arial" font-size="14" fill="#333">MPI processes</text>
<text x="18" y="270.0" text-anchor="middle" transform="rotate(-90 18 270.0)" font-family="Arial" font-size="14" fill="#333">Efficiency</text>
<polyline points="85.0,450.3 345.0,460.4 605.0,465.5 865.0,468.1" fill="none" stroke="#1769aa" stroke-width="3"/>
<circle cx="85.0" cy="450.3" r="5" fill="#1769aa"/>
<circle cx="345.0" cy="460.4" r="5" fill="#1769aa"/>
<circle cx="605.0" cy="465.5" r="5" fill="#1769aa"/>
<circle cx="865.0" cy="468.1" r="5" fill="#1769aa"/>
<polyline points="85.0,453.1 345.0,461.7 605.0,466.2 865.0,468.9" fill="none" stroke="#d1495b" stroke-width="3"/>
<circle cx="85.0" cy="453.1" r="5" fill="#d1495b"/>
<circle cx="345.0" cy="461.7" r="5" fill="#d1495b"/>
<circle cx="605.0" cy="466.2" r="5" fill="#d1495b"/>
<circle cx="865.0" cy="468.9" r="5" fill="#d1495b"/>
<polyline points="85.0,450.7 345.0,460.4 605.0,465.7 865.0,468.1" fill="none" stroke="#2a9d8f" stroke-width="3"/>
<circle cx="85.0" cy="450.7" r="5" fill="#2a9d8f"/>
<circle cx="345.0" cy="460.4" r="5" fill="#2a9d8f"/>
<circle cx="605.0" cy="465.7" r="5" fill="#2a9d8f"/>
<circle cx="865.0" cy="468.1" r="5" fill="#2a9d8f"/>
<polyline points="85.0,448.9 345.0,459.7 605.0,465.3 865.0,468.0" fill="none" stroke="#e09f3e" stroke-width="3"/>
<circle cx="85.0" cy="448.9" r="5" fill="#e09f3e"/>
<circle cx="345.0" cy="459.7" r="5" fill="#e09f3e"/>
<circle cx="605.0" cy="465.3" r="5" fill="#e09f3e"/>
<circle cx="865.0" cy="468.0" r="5" fill="#e09f3e"/>
<polyline points="85.0,387.9 345.0,313.6 605.0,410.3 865.0,441.6" fill="none" stroke="#6c4f9d" stroke-width="3"/>
<circle cx="85.0" cy="387.9" r="5" fill="#6c4f9d"/>
<circle cx="345.0" cy="313.6" r="5" fill="#6c4f9d"/>
<circle cx="605.0" cy="410.3" r="5" fill="#6c4f9d"/>
<circle cx="865.0" cy="441.6" r="5" fill="#6c4f9d"/>
<polyline points="85.0,55.0 345.0,154.0 605.0,261.7 865.0,353.5" fill="none" stroke="#1769aa" stroke-width="3"/>
<circle cx="85.0" cy="55.0" r="5" fill="#1769aa"/>
<circle cx="345.0" cy="154.0" r="5" fill="#1769aa"/>
<circle cx="605.0" cy="261.7" r="5" fill="#1769aa"/>
<circle cx="865.0" cy="353.5" r="5" fill="#1769aa"/>
<line x1="680" y1="65" x2="698" y2="65" stroke="#1769aa" stroke-width="3"/>
<text x="705" y="70" font-family="Arial" font-size="12" fill="#333">pdf_example</text>
<line x1="680" y1="87" x2="698" y2="87" stroke="#d1495b" stroke-width="3"/>
<text x="705" y="92" font-family="Arial" font-size="12" fill="#333">edge_case</text>
<line x1="680" y1="109" x2="698" y2="109" stroke="#2a9d8f" stroke-width="3"/>
<text x="705" y="114" font-family="Arial" font-size="12" fill="#333">small_k4</text>
<line x1="680" y1="131" x2="698" y2="131" stroke="#e09f3e" stroke-width="3"/>
<text x="705" y="136" font-family="Arial" font-size="12" fill="#333">medium_500</text>
<line x1="680" y1="153" x2="698" y2="153" stroke="#6c4f9d" stroke-width="3"/>
<text x="705" y="158" font-family="Arial" font-size="12" fill="#333">large_max</text>
<line x1="680" y1="175" x2="698" y2="175" stroke="#1769aa" stroke-width="3"/>
<text x="705" y="180" font-family="Arial" font-size="12" fill="#333">dense_1500</text>
</svg>