<svg xmlns="http://www.w3.org/2000/svg" width="900" height="540" viewBox="0 0 900 540">
<rect width="100%" height="100%" fill="#fbfaf7"/>
<text x="450.0" y="32" text-anchor="middle" font-family="Arial" font-size="22" font-weight="bold" fill="#202124">Q4 MPI Wall Runtime</text>
<line x1="85" y1="470.0" x2="865" y2="470.0" stroke="#d9d9d9"/>
<text x="73" y="475.0" text-anchor="end" font-family="Arial" font-size="12" fill="#555">0.00</text>
<line x1="85" y1="387.0" x2="865" y2="387.0" stroke="#d9d9d9"/>
<text x="73" y="392.0" text-anchor="end" font-family="Arial" font-size="12" fill="#555">0.75</text>
<line x1="85" y1="304.0" x2="865" y2="304.0" stroke="#d9d9d9"/>
<text x="73" y="309.0" text-anchor="end" font-family="Arial" font-size="12" fill="#555">1.51</text>
<line x1="85" y1="221.0" x2="865" y2="221.0" stroke="#d9d9d9"/>
<text x="73" y="226.0" text-anchor="end" font-family="Arial" font-size="12" fill="#555">2.26</text>
<line x1="85" y1="138.0" x2="865" y2="138.0" stroke="#d9d9d9"/>
<text x="73" y="143.0" text-anchor="end" font-family="Arial" font-size="12" fill="#555">3.01</text>
<line x1="85" y1="55.0" x2="865" y2="55.0" stroke="#d9d9d9"/>
<text x="73" y="60.0" text-anchor="end" font-family="Arial" font-size="12" fill="#555">3.77</text>
<line x1="85" y1="55" x2="85" y2="470" stroke="#555"/>
<line x1="85" y1="470" x2="865" y2="470" stroke="#555"/>
<text x="85.0" y="495" text-anchor="middle" font-family="Arial" font-size="12" fill="#555">1</text>
<text x="345.0" y="495" text-anchor="middle" font-family="Arial" font-size="12" fill="#555">2</text>
<text x="605.0" y="495" text-anchor="middle" font-family="Arial" font-size="12" fill="#555">4</text>
<text x="865.0" y="495" text-anchor="middle" font-family="Arial" font-size="12" fill="#555">8</text>
<text x="450.0" y="522" text-anchor="middle" font-family="Arial" font-size="14" fill="#333">MPI processes</text>
<text x="18" y="270.0" text-anchor="middle" transform="rotate(-90 18 270.0)" font-family="Arial" font-size="14" fill="#333">Time (seconds)</text>
<polyline points="85.0,451.6 345.0,450.4 605.0,443.4 865.0,431.6" fill="none" stroke="#1769aa" stroke-width="3"/>
<circle cx="85.0" cy="451.6" r="5" fill="#1769aa"/>
<circle cx="345.0" cy="450.4" r="5" fill="#1769aa"/>
<circle cx="605.0" cy="443.4" r="5" fill="#1769aa"/>
<circle cx="865.0" cy="431.6" r="5" fill="#1769aa"/>
<polyline points="85.0,452.9 345.0,449.8 605.0,443.2 865.0,432.6" fill="none" stroke="#d1495b" stroke-width="3"/>
<circle cx="85.0" cy="452.9" r="5" fill="#d1495b"/>
<circle cx="345.0" cy="449.8" r="5" fill="#d1495b"/>
<circle cx="605.0" cy="443.2" r="5" fill="#d1495b"/>
<circle cx="865.0" cy="432.6" r="5" fill="#d1495b"/>
<polyline points="85.0,452.6 345.0,450.1 605.0,443.2 865.0,432.4" fill="none" stroke="#2a9d8f" stroke-width="3"/>
<circle cx="85.0" cy="452.6" r="5" fill="#2a9d8f"/>
<circle cx="345.0" cy="450.1" r="5" fill="#2a9d8f"/>
<circle cx="605.0" cy="443.2" r="5" fill="#2a9d8f"/>
<circle cx="865.0" cy="432.4" r="5" fill="#2a9d8f"/>
<polyline points="85.0,452.1 345.0,450.2 605.0,443.5 865.0,431.7" fill="none" stroke="#e09f3e" stroke-width="3"/>
<circle cx="85.0" cy="452.1" r="5" fill="#e09f3e"/>
<circle cx="345.0" cy="450.2" r="5" fill="#e09f3e"/>
<circle cx="605.0" cy="443.5" r="5" fill="#e09f3e"/>
<circle cx="865.0" cy="431.7" r="5" fill="#e09f3e"/>
<polyline points="85.0,395.4 345.0,405.6 605.0,407.4 865.0,399.8" fill="none" stroke="#6c4f9d" stroke-width="3"/>
<circle cx="85.0" cy="395.4" r="5" fill="#6c4f9d"/>
<circle cx="345.0" cy="405.6" r="5" fill="#6c4f9d"/>
<circle cx="605.0" cy="407.4" r="5" fill="#6c4f9d"/>
<circle cx="865.0" cy="399.8" r="5" fill="#6c4f9d"/>
<polyline points="85.0,55.0 345.0,240.7 605.0,324.7 865.0,359.5" fill="none" stroke="#1769aa" stroke-width="3"/>
<circle cx="85.0" cy="55.0" r="5" fill="#1769aa"/>
<circle cx="345.0" cy="240.7" r="5" fill="#1769aa"/>
<circle cx="605.0" cy="324.7" r="5" fill="#1769aa"/>
<circle cx="865.0" cy="359.5" r="5" fill="#1769aa"/>
<line x1="680" y1="65" x2="698" y2="65" stroke="#1769aa" stroke-width="3"/>
<text x="705" y="70" font-family="Arial" font-size="12" fill="#333">pdf_example</text>
<line x1="680" y1="87" x2="698" y2="87" stroke="#d1495b" stroke-width="3"/>
<text x="705" y="92" font-family="Arial" font-size="12" fill="#333">edge_case</text>
<line x1="680" y1="109" x2="698" y2="109" stroke="#2a9d8f" stroke-width="3"/>
<text x="705" y="114" font-family="Arial" font-size="12" fill="#333">small_k4</text>
<line x1="680" y1="131" x2="698" y2="131" stroke="#e09f3e" stroke-width="3"/>
<text x="705" y="136" font-family="Arial" font-size="12" fill="#333">medium_500</text>
<line x1="680" y1="153" x2="698" y2="153" stroke="#6c4f9d" stroke-width="3"/>
<text x="705" y="158" font-family="Arial" font-size="12" fill="#333">large_max</text>
<line x1="680" y1="175" x2="698" y2="175" stroke="#1769aa" stroke-width="3"/>
<text x="705" y="180" font-family="Arial" font-size="12" fill="#333">dense_1500</text>
</svg>