<svg xmlns="http://www.w3.org/2000/svg" width="900" height="540" viewBox="0 0 900 540">
<rect width="100%" height="100%" fill="#fbfaf7"/>
<text x="450.0" y="32" text-anchor="middle" font-family="Arial" font-size="22" font-weight="bold" fill="#202124">Q8 MPI Wall Runtime</text>
<line x1="85" y1="470.0" x2="865" y2="470.0" stroke="#d9d9d9"/>
<text x="73" y="475.0" text-anchor="end" font-family="Arial" font-size="12" fill="#555">0.00</text>
<line x1="85" y1="387.0" x2="865" y2="387.0" stroke="#d9d9d9"/>
<text x="73" y="392.0" text-anchor="end" font-family="Arial" font-size="12" fill="#555">0.35</text>
<line x1="85" y1="304.0" x2="865" y2="304.0" stroke="#d9d9d9"/>
<text x="73" y="309.0" text-anchor="end" font-family="Arial" font-size="12" fill="#555">0.70</text>
<line x1="85" y1="221.0" x2="865" y2="221.0" stroke="#d9d9d9"/>
<text x="73" y="226.0" text-anchor="end" font-family="Arial" font-size="12" fill="#555">1.04</text>
<line x1="85" y1="138.0" x2="865" y2="138.0" stroke="#d9d9d9"/>
<text x="73" y="143.0" text-anchor="end" font-family="Arial" font-size="12" fill="#555">1.39</text>
<line x1="85" y1="55.0" x2="865" y2="55.0" stroke="#d9d9d9"/>
<text x="73" y="60.0" text-anchor="end" font-family="Arial" font-size="12" fill="#555">1.74</text>
<line x1="85" y1="55" x2="85" y2="470" stroke="#555"/>
<line x1="85" y1="470" x2="865" y2="470" stroke="#555"/>
<text x="85.0" y="495" text-anchor="middle" font-family="Arial" font-size="12" fill="#555">1</text>
<text x="345.0" y="495" text-anchor="middle" font-family="Arial" font-size="12" fill="#555">2</text>
<text x="605.0" y="495" text-anchor="middle" font-family="Arial" font-size="12" fill="#555">4</text>
<text x="865.0" y="495" text-anchor="middle" font-family="Arial" font-size="12" fill="#555">8</text>
<text x="450.0" y="522" text-anchor="middle" font-family="Arial" font-size="14" fill="#333">MPI processes</text>
<text x="18" y="270.0" text-anchor="middle" transform="rotate(-90 18 270.0)" font-family="Arial" font-size="14" fill="#333">Time (seconds)</text>
<polyline points="85.0,430.0 345.0,426.4 605.0,412.4 865.0,385.6" fill="none" stroke="#1769aa" stroke-width="3"/>
<circle cx="85.0" cy="430.0" r="5" fill="#1769aa"/>
<circle cx="345.0" cy="426.4" r="5" fill="#1769aa"/>
<circle cx="605.0" cy="412.4" r="5" fill="#1769aa"/>
<circle cx="865.0" cy="385.6" r="5" fill="#1769aa"/>
<polyline points="85.0,431.4 345.0,425.5 605.0,412.5 865.0,386.3" fill="none" stroke="#d1495b" stroke-width="3"/>
<circle cx="85.0" cy="431.4" r="5" fill="#d1495b"/>
<circle cx="345.0" cy="425.5" r="5" fill="#d1495b"/>
<circle cx="605.0" cy="412.5" r="5" fill="#d1495b"/>
<circle cx="865.0" cy="386.3" r="5" fill="#d1495b"/>
<polyline points="85.0,428.7 345.0,426.0 605.0,409.9 865.0,382.8" fill="none" stroke="#2a9d8f" stroke-width="3"/>
<circle cx="85.0" cy="428.7" r="5" fill="#2a9d8f"/>
<circle cx="345.0" cy="426.0" r="5" fill="#2a9d8f"/>
<circle cx="605.0" cy="409.9" r="5" fill="#2a9d8f"/>
<circle cx="865.0" cy="382.8" r="5" fill="#2a9d8f"/>
<polyline points="85.0,399.5 345.0,398.5 605.0,379.1 865.0,342.8" fill="none" stroke="#e09f3e" stroke-width="3"/>
<circle cx="85.0" cy="399.5" r="5" fill="#e09f3e"/>
<circle cx="345.0" cy="398.5" r="5" fill="#e09f3e"/>
<circle cx="605.0" cy="379.1" r="5" fill="#e09f3e"/>
<circle cx="865.0" cy="342.8" r="5" fill="#e09f3e"/>
<polyline points="85.0,103.1 345.0,103.9 605.0,88.3 865.0,55.0" fill="none" stroke="#6c4f9d" stroke-width="3"/>
<circle cx="85.0" cy="103.1" r="5" fill="#6c4f9d"/>
<circle cx="345.0" cy="103.9" r="5" fill="#6c4f9d"/>
<circle cx="605.0" cy="88.3" r="5" fill="#6c4f9d"/>
<circle cx="865.0" cy="55.0" r="5" fill="#6c4f9d"/>
<line x1="680" y1="65" x2="698" y2="65" stroke="#1769aa" stroke-width="3"/>
<text x="705" y="70" font-family="Arial" font-size="11" fill="#333">sample_q8</text>
<line x1="680" y1="85" x2="698" y2="85" stroke="#d1495b" stroke-width="3"/>
<text x="705" y="90" font-family="Arial" font-size="11" fill="#333">small_100</text>
<line x1="680" y1="105" x2="698" y2="105" stroke="#2a9d8f" stroke-width="3"/>
<text x="705" y="110" font-family="Arial" font-size="11" fill="#333">medium_10k</text>
<line x1="680" y1="125" x2="698" y2="125" stroke="#e09f3e" stroke-width="3"/>
<text x="705" y="130" font-family="Arial" font-size="11" fill="#333">large_100k</text>
<line x1="680" y1="145" x2="698" y2="145" stroke="#6c4f9d" stroke-width="3"/>
<text x="705" y="150" font-family="Arial" font-size="11" fill="#333">large_1m</text>
</svg>